<svg fill="none" height="630" viewBox="0 0 1200 630" width="1200" xmlns="http://www.w3.org/2000/svg" xmlns:xlink="http://www.w3.org/1999/xlink"><linearGradient id="a" x1="0%" x2="100%" y1="0%" y2="100%"><stop offset="0" stop-color="#0c0a1a"/><stop offset="1" stop-color="#1a1535"/></linearGradient><pattern id="b" height="40" patternUnits="userSpaceOnUse" width="40"><circle cx="20" cy="20" fill="#4f46e5" r="1"/></pattern><path d="m0 0h1200v630h-1200z" fill="url(#a)"/><g opacity=".06" stroke="#4f46e5"><path d="m0 0 1200 630"/><path d="m200 0 1000 500"/><path d="m400 0 800 400"/><path d="m600 0 600 300"/><path d="m0 130 1000 500"/><path d="m0 330 600 300"/><path d="m0 530 200 100"/></g><path d="m0 0h1200v630h-1200z" fill="url(#b)" opacity=".04"/><g transform="translate(60 100)"><rect fill="#0f0d1f" height="430" rx="12" stroke="#2a2545" stroke-width="1.5" width="420"/><rect fill="#1a1535" height="40" rx="12" width="420"/><path d="m0 28h420v12h-420z" fill="#1a1535"/><circle cx="24" cy="20" fill="#ef4444" opacity=".7" r="6"/><circle cx="48" cy="20" fill="#eab308" opacity=".7" r="6"/><circle cx="72" cy="20" fill="#22c55e" opacity=".7" r="6"/><text fill="#6b6490" font-family="system-ui, sans-serif" font-size="13" text-anchor="middle" x="210" y="25">Indigo Docs</text><path d="m0 40h130v390h-130z" fill="#13112a"/><path d="m130 40v390" stroke="#2a2545"/><text fill="#6b6490" font-family="monospace" font-size="10" font-weight="600" letter-spacing="1" x="16" y="72">KNOWLEDGE</text><rect fill="#4f46e5" height="16" rx="2" width="4" x="12" y="82"/><text fill="#e2e0f0" font-family="system-ui, sans-serif" font-size="12" x="22" y="94">ralph</text><text fill="#6b6490" font-family="system-ui, sans-serif" font-size="12" x="22" y="114">dev-team</text><text fill="#6b6490" font-family="system-ui, sans-serif" font-size="12" x="22" y="134">hq-core</text><text fill="#6b6490" font-family="monospace" font-size="10" font-weight="600" letter-spacing="1" x="16" y="166">COMPANIES</text><circle cx="18" cy="182" fill="#34d399" r="4"/><text fill="#6b6490" font-family="system-ui, sans-serif" font-size="12" x="28" y="186">liverecover</text><circle cx="18" cy="202" fill="#60a5fa" r="4"/><text fill="#6b6490" font-family="system-ui, sans-serif" font-size="12" x="28" y="206">abacus</text><circle cx="18" cy="222" fill="#818cf8" r="4"/><g fill="#6b6490"><text font-family="system-ui, sans-serif" font-size="12" x="28" y="226">indigo</text><text font-family="monospace" font-size="10" font-weight="600" letter-spacing="1" x="16" y="258">TOOLS</text><text font-family="system-ui, sans-serif" font-size="12" x="22" y="276">workers</text><text font-family="system-ui, sans-serif" font-size="12" x="22" y="296">commands</text></g><g transform="translate(145 55)"><text fill="#4d4870" font-family="system-ui, sans-serif" font-size="11" y="10">knowledge / public / ralph</text><text fill="#e2e0f0" font-family="system-ui, sans-serif" font-size="20" font-weight="700" y="42">Ralph Framework</text><text fill="#4d4870" font-family="system-ui, sans-serif" font-size="10" y="62">423 words · 2 min read · Feb 13, 2026</text><rect fill="#2a2545" height="10" opacity=".8" rx="2" width="220" y="80"/><rect fill="#2a2545" height="10" opacity=".6" rx="2" width="180" y="98"/><rect fill="#2a2545" height="10" opacity=".5" rx="2" width="240" y="116"/><rect fill="#2a2545" height="10" opacity=".4" rx="2" width="160" y="134"/><rect fill="#0f0d1f" height="70" rx="6" stroke="#2a2545" width="255" y="160"/><g font-family="monospace" font-size="10"><text fill="#818cf8" x="12" y="182">const</text><text fill="#e2e0f0" x="44" y="182">agent</text><text fill="#818cf8" x="76" y="182">=</text><text fill="#34d399" x="88" y="182">new</text><text fill="#fbbf24" x="108" y="182">Ralph</text><text fill="#e2e0f0" x="140" y="182">()</text><text fill="#818cf8" x="12" y="200">await</text><text fill="#e2e0f0" x="48" y="200">agent.</text><text fill="#60a5fa" x="82" y="200">run</text><text fill="#e2e0f0" x="100" y="200">(prd)</text><text fill="#4d4870" x="12" y="218">// fresh context per task</text></g><rect fill="#2a2545" height="10" opacity=".4" rx="2" width="200" y="246"/><rect fill="#2a2545" height="10" opacity=".3" rx="2" width="240" y="264"/><rect fill="#2a2545" height="10" opacity=".2" rx="2" width="170" y="282"/></g><rect fill="#4f46e5" height="80" opacity=".3" rx="1.5" width="3" x="385" y="55"/></g><text fill="#f0eef8" font-family="system-ui, -apple-system, sans-serif" font-size="64" font-weight="700" x="540" y="195">Indigo Docs</text><text fill="#8b85ad" font-family="system-ui, sans-serif" font-size="24" x="540" y="250">Your HQ, beautifully browsable.</text><g transform="translate(540 290)"><rect fill="#4f46e5" height="32" opacity=".15" rx="16" stroke="#4f46e5" stroke-opacity=".3" width="136"/><text fill="#818cf8" font-family="system-ui, sans-serif" font-size="13" font-weight="500" x="16" y="21">Glass Vibrancy</text></g><g transform="translate(690 290)"><rect fill="#4f46e5" height="32" opacity=".15" rx="16" stroke="#4f46e5" stroke-opacity=".3" width="160"/><text fill="#818cf8" font-family="system-ui, sans-serif" font-size="13" font-weight="500" x="16" y="21">Mermaid Diagrams</text></g><g transform="translate(865 290)"><rect fill="#4f46e5" height="32" opacity=".15" rx="16" stroke="#4f46e5" stroke-opacity=".3" width="136"/><text fill="#818cf8" font-family="system-ui, sans-serif" font-size="13" font-weight="500" x="16" y="21">qmd Search ⌘K</text></g><g transform="translate(540 334)"><rect fill="#4f46e5" height="32" opacity=".15" rx="16" stroke="#4f46e5" stroke-opacity=".3" width="104"/><text fill="#818cf8" font-family="system-ui, sans-serif" font-size="13" font-weight="500" x="16" y="21">Recharts</text></g><g transform="translate(658 334)"><rect fill="#4f46e5" height="32" opacity=".15" rx="16" stroke="#4f46e5" stroke-opacity=".3" width="156"/><text fill="#818cf8" font-family="system-ui, sans-serif" font-size="13" font-weight="500" x="16" y="21">Company Isolation</text></g><g transform="translate(828 334)"><rect fill="#4f46e5" height="32" opacity=".15" rx="16" stroke="#4f46e5" stroke-opacity=".3" width="120"/><text fill="#818cf8" font-family="system-ui, sans-serif" font-size="13" font-weight="500" x="16" y="21">File Watching</text></g><text fill="#4d4870" font-family="monospace" font-size="14" x="540" y="416">Tauri 2 · React 19 · Rust · Tailwind CSS 4</text><text fill="#6b6490" font-family="system-ui, sans-serif" font-size="16" x="540" y="460">Open-source desktop app that turns any HQ folder into</text><text fill="#6b6490" font-family="system-ui, sans-serif" font-size="16" x="540" y="482">a polished documentation site with native glass UI.</text><g fill="#818cf8" opacity=".25" transform="matrix(1.4 0 0 1.4 1050 540)"><path d="m23.3486 1.39825c.516-.515991.1506-1.39825-.5792-1.39825h-6.95c-.2173 0-.4256.0862951-.5792.239901l-15.000299 15.000299c-.3198682.3199-.3198682.8385 0 1.1583l22.008599 22.0086c.3199.3199.8385.3199 1.1583 0l22.0086-22.0086c.3199-.3198.3199-.8384 0-1.1583l-4.0542-4.0542c-.033-.033-.09-.0184-.1082.0246-.0399.0938-.0982.1818-.1747.2583l-17.6715 17.6715c-.3198.3198-.8384.3198-1.1583 0l-12.74183-12.7419c-.31986-.3198-.31986-.8384 0-1.1583l7.24343-7.24346.0029-.00286z"/><path d="m49.2538.239901c-.1536-.1536059-.362-.239901-.5792-.239901h-14.0166c-.2172 0-.4256.0862951-.5792.239901l-15.0003 15.000299c-.3198.3199-.3198.8385 0 1.1583l3.4708 3.4708c.3199.3199.8385.3199 1.1583 0l11.0022-11.00218c.0012-.00119.0031-.00119.0043 0s.0031.00119.0043 0l2.0746-2.07462c.1536-.15361.362-.2399.5792-.2399h8.5882c.2173 0 .4256.08629.5792.2399l8.4477 8.4477c.3199.3199.3199.8385 0 1.1583l-11.649 11.6491c-.0057.0053-.0113.0108-.0168.0163l-15.0627 15.0627c-.3199.3199-.3199.8385 0 1.1584l3.475 3.475c.3199.3199.8385.3199 1.1584 0l9.3369-9.3369c.0055-.0052.011-.0105.0164-.016l22.0086-22.0086c.3198-.3198.3198-.8384 0-1.1583z"/></g><text fill="#4d4870" font-family="monospace" font-size="16" x="540" y="570">github.com/indigoai-us/hq-docs-app</text><rect fill="#4f46e5" height="22" opacity=".2" rx="11" width="52" x="540" y="580"/><text fill="#818cf8" font-family="monospace" font-size="11" font-weight="600" x="553" y="596">v0.1.0</text></svg>